<svg width="122" height="36" viewBox="0 0 122 36" fill="none" xmlns="http://www.w3.org/2000/svg">
<path d="M23.3786 18.8182C23.3786 22.1806 20.6544 24.9048 17.292 24.9048C13.9296 24.9048 11.2054 22.1782 11.2054 18.8182C11.2054 15.4581 13.932 12.7316 17.292 12.7316C20.6521 12.7316 23.3786 15.4558 23.3786 18.8182ZM30.4375 14.574C32.3427 17.941 32.468 22.0297 30.774 25.5081L30.2658 26.55C28.2981 30.5923 24.634 33.1564 20.1392 33.1564H14.3891C9.892 33.1564 6.28597 30.5923 4.3182 26.55L3.81002 25.5081C2.11606 22.0297 2.24137 17.941 4.14648 14.574L7.03316 8.59181C8.26998 6.40592 10.1728 4.67252 12.4654 3.64687C15.5192 2.28242 19.0092 2.28242 22.0606 3.64687C24.3532 4.67252 26.2584 6.40592 27.4928 8.59181L30.4352 14.574M25.5436 20.6119C24.5806 19.6489 24.5806 18.0895 25.5436 17.1265C27.3467 15.3235 27.3467 12.402 25.5436 10.599C23.7406 8.79602 20.8191 8.79602 19.0161 10.599C18.0531 11.562 16.4938 11.562 15.5308 10.599C13.7278 8.79602 10.8063 8.79602 9.00325 10.599L8.9406 10.6617C7.13759 12.4647 7.2304 15.3212 9.0195 17.1405C9.96625 18.1035 9.96161 19.6535 9.00557 20.6096C7.20256 22.4126 7.20256 25.3341 9.00557 27.1371C10.8086 28.9401 13.7301 28.9401 15.5331 27.1371C16.4961 26.1741 18.0555 26.1741 19.0185 27.1371C20.8215 28.9401 23.7429 28.9401 25.546 27.1371C27.349 25.3341 27.349 22.4126 25.546 20.6096" fill="#171717"/>
<path d="M44.4493 21.0562V27.3865H38.502V8.39567H52.7474C59.5626 8.39567 61.6047 11.1014 61.6047 14.5728V14.828C61.6047 18.2229 59.5371 21.0562 52.7474 21.0562H44.4493ZM44.4493 16.7935H52.643C54.5063 16.7935 55.3997 16.0788 55.3997 14.8025V14.7259C55.3997 13.4497 54.5318 12.7094 52.643 12.7094H44.4493V16.7935ZM90.4738 17.4572V18.2229C90.4738 21.5667 89.0954 27.7183 77.1217 27.7183H76.0241C63.9994 27.7183 62.6466 21.5667 62.6466 18.2229V17.4572C62.6466 14.0623 63.9994 8.06152 76.0241 8.06152H77.1217C89.0699 8.06152 90.4738 14.06 90.4738 17.4572ZM68.8771 17.6358V17.9421C68.8771 20.1118 70.1533 23.0982 76.5602 23.0982C82.967 23.0982 84.2433 20.1884 84.2433 17.9932V17.6358C84.2433 15.4407 82.967 12.6584 76.5602 12.6584C70.1533 12.6584 68.8771 15.4407 68.8771 17.6358ZM105.049 8.39567C116.052 8.39567 118.452 13.1179 118.452 17.3829V18.1487C118.452 22.2327 116.18 27.4143 105.074 27.3888H92.4624V8.39567H105.049ZM104.589 22.8175C111.328 22.8175 112.221 19.8565 112.221 17.9166V17.7635C112.221 15.8235 111.405 12.8881 104.589 12.8881H98.4121V22.8198H104.589V22.8175Z" fill="#171717"/>
</svg>
