<svg preserveAspectRatio="none" width="100%" height="100%" overflow="visible" style="display: block;" viewBox="0 0 1083.01 1081.88" fill="none" xmlns="http://www.w3.org/2000/svg">
<g id="Vector" style="mix-blend-mode:soft-light">
<path d="M640.34 76.292C741.507 -24.8745 905.552 -24.8745 1006.72 76.292C1107.89 177.459 1107.89 341.504 1006.72 442.671C952.425 496.965 952.425 584.915 1006.72 639.209C1107.89 740.376 1107.89 904.422 1006.72 1005.59C905.552 1106.75 741.506 1106.76 640.34 1005.59C586.046 951.295 498.095 951.295 443.802 1005.59C342.635 1106.76 178.589 1106.75 77.4229 1005.59C-23.7439 904.422 -23.7439 740.376 77.4229 639.209C131.42 585.211 131.716 497.853 78.2363 443.485C-22.1339 341.421 -27.3463 181.061 73.8828 79.832L77.4229 76.292C178.59 -24.8745 342.635 -24.8745 443.802 76.292C498.095 130.586 586.046 130.586 640.34 76.292Z" fill="var(--fill-0, white)" fill-opacity="0.1"/>
<path d="M640.34 76.292C741.507 -24.8745 905.552 -24.8745 1006.72 76.292C1107.89 177.459 1107.89 341.504 1006.72 442.671C952.425 496.965 952.425 584.915 1006.72 639.209C1107.89 740.376 1107.89 904.422 1006.72 1005.59C905.552 1106.75 741.506 1106.76 640.34 1005.59C586.046 951.295 498.095 951.295 443.802 1005.59C342.635 1106.76 178.589 1106.75 77.4229 1005.59C-23.7439 904.422 -23.7439 740.376 77.4229 639.209C131.42 585.211 131.716 497.853 78.2363 443.485C-22.1339 341.421 -27.3463 181.061 73.8828 79.832L77.4229 76.292C178.59 -24.8745 342.635 -24.8745 443.802 76.292C498.095 130.586 586.046 130.586 640.34 76.292Z" stroke="var(--stroke-0, white)" stroke-width="0.83383"/>
</g>
</svg>
