<svg preserveAspectRatio="none" width="100%" height="100%" overflow="visible" style="display: block;" viewBox="0 0 110.204 25.8026" fill="none" xmlns="http://www.w3.org/2000/svg">
<g id="Group 1">
<path id="Vector" d="M17.5401 13.6857C17.5401 16.5272 15.2379 18.8294 12.3964 18.8294C9.55493 18.8294 7.25274 16.5252 7.25274 13.6857C7.25274 10.8462 9.55689 8.54204 12.3964 8.54204C15.2359 8.54204 17.5401 10.8442 17.5401 13.6857ZM23.5054 10.0991C25.1153 12.9444 25.2212 16.3997 23.7897 19.3392L23.3602 20.2197C21.6973 23.6357 18.6009 25.8026 14.8025 25.8026H9.9432C6.14282 25.8026 3.09545 23.6357 1.43254 20.2197L1.00308 19.3392C-0.428432 16.3997 -0.322539 12.9444 1.28743 10.0991L3.72689 5.04365C4.77209 3.1964 6.3801 1.73155 8.31755 0.864793C10.8982 -0.288264 13.8475 -0.288264 16.4262 0.864793C18.3637 1.73155 19.9736 3.1964 21.0169 5.04365L23.5034 10.0991M19.3696 15.2015C18.5558 14.3877 18.5558 13.0699 19.3696 12.2561C20.8933 10.7325 20.8933 8.26358 19.3696 6.7399C17.846 5.21621 15.3771 5.21621 13.8534 6.7399C13.0396 7.55371 11.7218 7.55371 10.908 6.7399C9.38433 5.21621 6.91545 5.21621 5.39176 6.7399L5.33882 6.79284C3.81513 8.31653 3.89357 10.7305 5.40549 12.2679C6.20557 13.0817 6.20165 14.3917 5.39373 15.1996C3.87004 16.7233 3.87004 19.1921 5.39373 20.7158C6.91741 22.2395 9.38629 22.2395 10.91 20.7158C11.7238 19.902 13.0416 19.902 13.8554 20.7158C15.379 22.2395 17.8479 22.2395 19.3716 20.7158C20.8953 19.1921 20.8953 16.7233 19.3716 15.1996" fill="var(--fill-0, #171717)"/>
<path id="Vector_2" d="M39.115 15.943V22.0241H33.4017V3.78079H47.0864C53.6333 3.78079 55.595 6.37996 55.595 9.71475V9.95996C55.595 13.2212 53.6088 15.943 47.0864 15.943H39.115ZM39.115 11.848H46.9861C48.7761 11.848 49.6343 11.1615 49.6343 9.93544V9.86188C49.6343 8.63585 48.8006 7.92475 46.9861 7.92475H39.115V11.848ZM83.3277 12.4856V13.2212C83.3277 16.4334 82.0036 22.3428 70.5012 22.3428H69.4469C57.8955 22.3428 56.5959 16.4334 56.5959 13.2212V12.4856C56.5959 9.22434 57.8955 3.45979 69.4469 3.45979H70.5012C81.9791 3.45979 83.3277 9.22211 83.3277 12.4856ZM62.5811 12.6572V12.9515C62.5811 15.0357 63.8071 17.9046 69.9618 17.9046C76.1164 17.9046 77.3425 15.1093 77.3425 13.0005V12.6572C77.3425 10.5485 76.1164 7.87571 69.9618 7.87571C63.8071 7.87571 62.5811 10.5485 62.5811 12.6572ZM97.3289 3.78079C107.899 3.78079 110.204 8.31708 110.204 12.4142V13.1499C110.204 17.0731 108.022 22.0508 97.3534 22.0263H85.2381V3.78079H97.3289ZM96.8875 17.6349C103.361 17.6349 104.219 14.7905 104.219 12.9269V12.7798C104.219 10.9163 103.435 8.0964 96.8875 8.0964H90.9536V17.6371H96.8875V17.6349Z" fill="var(--fill-0, #171717)"/>
</g>
</svg>
