<svg preserveAspectRatio="none" width="100%" height="100%" overflow="visible" style="display: block;" viewBox="0 0 1081.7 1080.57" fill="none" xmlns="http://www.w3.org/2000/svg">
<g id="Vector" style="mix-blend-mode:soft-light">
<path d="M639.535 76.1719C740.595 -24.8875 904.467 -24.8875 1005.53 76.1719C1106.59 177.231 1106.59 341.103 1005.53 442.162C951.314 496.375 951.314 584.194 1005.53 638.406C1106.59 739.465 1106.59 903.337 1005.53 1004.4C904.467 1105.46 740.595 1105.46 639.535 1004.4C585.323 950.184 497.504 950.184 443.292 1004.4C342.233 1105.46 178.36 1105.46 77.3008 1004.4C-23.7584 903.337 -23.7585 739.466 77.3008 638.406C131.218 584.489 131.513 497.261 78.1133 442.975C-22.1491 341.02 -27.3571 180.83 73.7656 79.707L77.3008 76.1719C178.36 -24.8875 342.233 -24.8875 443.292 76.1719C497.505 130.384 585.323 130.384 639.535 76.1719Z" fill="var(--fill-0, white)" fill-opacity="0.1"/>
<path d="M639.535 76.1719C740.595 -24.8875 904.467 -24.8875 1005.53 76.1719C1106.59 177.231 1106.59 341.103 1005.53 442.162C951.314 496.375 951.314 584.194 1005.53 638.406C1106.59 739.465 1106.59 903.337 1005.53 1004.4C904.467 1105.46 740.595 1105.46 639.535 1004.4C585.323 950.184 497.504 950.184 443.292 1004.4C342.233 1105.46 178.36 1105.46 77.3008 1004.4C-23.7584 903.337 -23.7585 739.466 77.3008 638.406C131.218 584.489 131.513 497.261 78.1133 442.975C-22.1491 341.02 -27.3571 180.83 73.7656 79.707L77.3008 76.1719C178.36 -24.8875 342.233 -24.8875 443.292 76.1719C497.505 130.384 585.323 130.384 639.535 76.1719Z" stroke="var(--stroke-0, white)" stroke-width="0.754332"/>
</g>
</svg>
