<svg preserveAspectRatio="none" width="100%" height="100%" overflow="visible" style="display: block;" viewBox="0 0 628.141 627.485" fill="none" xmlns="http://www.w3.org/2000/svg">
<g id="Vector" style="mix-blend-mode:soft-light">
<path d="M371.394 44.249C430.07 -14.4272 525.216 -14.4272 583.893 44.249C642.569 102.925 642.568 198.071 583.893 256.747C552.402 288.237 552.402 339.248 583.893 370.738C642.569 429.414 642.568 524.56 583.893 583.236C525.216 641.913 430.07 641.913 371.394 583.236C339.904 551.747 288.893 551.747 257.403 583.236C198.727 641.913 103.581 641.913 44.9043 583.236C-13.7716 524.56 -13.7716 429.414 44.9043 370.738C76.2228 339.42 76.3952 288.752 45.377 257.219H45.376C-12.8378 198.022 -15.8607 105.014 42.8516 46.3018L44.9043 44.249C103.581 -14.4272 198.727 -14.4272 257.403 44.249C288.893 75.7389 339.903 75.7389 371.394 44.249Z" fill="var(--fill-0, white)" fill-opacity="0.1"/>
<path d="M371.394 44.249C430.07 -14.4272 525.216 -14.4272 583.893 44.249C642.569 102.925 642.568 198.071 583.893 256.747C552.402 288.237 552.402 339.248 583.893 370.738C642.569 429.414 642.568 524.56 583.893 583.236C525.216 641.913 430.07 641.913 371.394 583.236C339.904 551.747 288.893 551.747 257.403 583.236C198.727 641.913 103.581 641.913 44.9043 583.236C-13.7716 524.56 -13.7716 429.414 44.9043 370.738C76.2228 339.42 76.3952 288.752 45.377 257.219H45.376C-12.8378 198.022 -15.8607 105.014 42.8516 46.3018L44.9043 44.249C103.581 -14.4272 198.727 -14.4272 257.403 44.249C288.893 75.7389 339.903 75.7389 371.394 44.249Z" stroke="var(--stroke-0, white)" stroke-width="0.483617"/>
</g>
</svg>
